# xmcd
#
# Track frame offsets:
#	150
#	11124
#	27306
#	46880
#	73527
#	100029
#	121934
#	148976
#	157015
#	162922
#	196374
#	220306
#	236511
#	265740
#	290142
#	303977
#
# Disc length: 4316 seconds
#
# Revision: 1
# Processed by: cddbd v1.5.2PL0 Copyright (c) Steve Scherf et al.
# Submitted via: audiograbber 1.83.01
#
DISCID=ea10da10
DTITLE=Léo Ferré - On n'est pas sérieux quand on a 17 ans
DYEAR=1950
DGENRE=Chanson
TTITLE0=On n'est pas sérieux quan on a 17 ans (A. Rimbaud)
TTITLE1=Les Morts qui Vivent
TTITLE2=Colloque Sentimental (P. Verlaine)
TTITLE3=Les Cloches et la Tzigane (G. Appolinaire)
TTITLE4=Tout ce que tu Veux
TTITLE5=Gaby
TTITLE6=Marie (G. Appolinaire)
TTITLE7=Le Sommeil du Juste
TTITLE8=Je te Donne ces Vers (Ch. Baudelaire)
TTITLE9=Le Manque
TTITLE10=Visa pour l'Amerique
TTITLE11=Si tu ne Mourus pas (P. Verlaine)
TTITLE12=Personne
TTITLE13=L'Examen de Minuit et Dorothée (Ch. Baudelaire)
TTITLE14=Le Faux Poète
TTITLE15=Lorsque tu me Liras
EXTD=
EXTT0=
EXTT1=
EXTT2=
EXTT3=
EXTT4=
EXTT5=
EXTT6=
EXTT7=
EXTT8=
EXTT9=
EXTT10=
EXTT11=
EXTT12=
EXTT13=
EXTT14=
EXTT15=
PLAYORDER=
